<?xml version="1.0" encoding="utf-8"?>
<!-- Generator: Adobe Illustrator 16.0.3, SVG Export Plug-In . SVG Version: 6.00 Build 0)  -->
<!DOCTYPE svg PUBLIC "-//W3C//DTD SVG 1.1//EN" "http://www.w3.org/Graphics/SVG/1.1/DTD/svg11.dtd">
<svg version="1.1" id="Layer_1" xmlns="http://www.w3.org/2000/svg" xmlns:xlink="http://www.w3.org/1999/xlink" x="0px" y="0px"
	 width="400px" height="400px" viewBox="0 0 400 400" enable-background="new 0 0 400 400" xml:space="preserve">
<rect fill="#FFFFFF" width="400" height="400"/>
<g>
	<path fill="#4DAF4E" d="M199.999,42.661C113.104,42.661,42.66,113.104,42.66,200s70.443,157.34,157.339,157.34
		c86.896,0,157.34-70.443,157.34-157.34S286.896,42.661,199.999,42.661z M199.999,347.716c-81.581,0-147.716-66.135-147.716-147.716
		S118.418,52.284,199.999,52.284S347.716,118.419,347.716,200S281.58,347.716,199.999,347.716z"/>
	<polygon fill="#4DAF4E" points="157.184,263.088 298.929,121.342 306.714,129.127 157.184,278.658 157.184,278.656 
		157.183,278.658 93.284,214.758 101.069,206.973 	"/>
</g>
</svg>
